<?xml version="1.0" standalone="no"?>
   <!DOCTYPE svg PUBLIC "-//W3C//DTD SVG 1.1//EN" 
   "http://www.w3.org/Graphics/SVG/1.1/DTD/svg11.dtd"><svg id="svg" version="1.1" width="5529" height="4899" xmlns="http://www.w3.org/2000/svg"><path d="M2892.000 410.049 C 2858.453 415.557,2804.351 427.600,2787.728 433.258 C 2736.333 450.753,2709.644 470.050,2649.728 533.035 C 2599.944 585.368,2586.471 595.171,2565.000 594.682 C 2546.472 594.260,2516.669 586.454,2498.569 577.282 C 2465.207 560.376,2390.114 559.897,2303.809 576.040 C 2211.468 593.311,2029.140 654.253,1952.506 693.460 C 1914.408 712.951,1882.668 736.941,1849.271 771.488 C 1817.517 804.334,1807.573 820.007,1798.492 851.519 L 1791.869 874.500 1754.685 876.567 C 1734.233 877.704,1687.608 880.068,1651.074 881.819 C 1561.076 886.133,1534.559 891.360,1467.000 918.102 C 1356.306 961.919,1245.944 1030.871,1122.000 1133.652 C 995.233 1238.773,940.743 1318.853,922.728 1426.500 C 919.967 1443.000,916.315 1464.701,914.613 1474.726 C 909.177 1506.742,903.193 1513.448,867.000 1528.085 C 826.517 1544.457,796.621 1562.039,774.608 1582.419 C 756.594 1599.097,748.866 1612.596,745.452 1633.353 C 743.254 1646.711,733.899 1656.588,694.632 1687.009 C 667.515 1708.018,619.119 1760.188,585.641 1804.500 C 550.303 1851.276,528.858 1901.633,511.483 1978.644 C 499.722 2030.771,498.380 2075.116,506.993 2127.000 C 511.516 2154.242,513.726 2180.267,513.744 2206.500 C 513.780 2257.006,509.941 2278.982,483.958 2377.017 C 452.900 2494.199,451.460 2535.556,475.964 2606.574 C 485.171 2633.255,499.345 2666.363,547.218 2773.010 C 566.355 2815.640,592.322 2876.390,604.922 2908.010 C 617.522 2939.629,634.926 2979.675,643.599 2997.000 C 680.761 3071.239,732.894 3136.243,816.000 3211.968 C 937.132 3322.340,1026.709 3369.116,1116.624 3368.948 C 1171.237 3368.846,1215.059 3353.054,1246.445 3322.166 C 1266.682 3302.250,1294.017 3261.607,1312.657 3223.719 C 1335.488 3177.315,1335.781 3167.907,1321.163 2950.500 C 1313.319 2833.840,1313.088 2786.393,1320.286 2770.500 C 1322.528 2765.550,1330.382 2751.465,1337.739 2739.201 C 1355.984 2708.786,1364.844 2686.139,1364.929 2669.697 C 1365.014 2653.120,1374.809 2633.285,1394.046 2610.731 C 1417.759 2582.930,1432.381 2577.143,1520.722 2560.595 C 1621.717 2541.677,1647.308 2531.841,1705.216 2489.685 C 1780.872 2434.608,1822.258 2388.110,1853.867 2322.673 C 1861.219 2307.453,1868.030 2295.000,1869.003 2295.000 C 1869.975 2295.000,1876.016 2307.246,1882.426 2322.213 C 1912.302 2391.966,1960.968 2443.082,2014.861 2461.316 C 2064.729 2478.187,2165.673 2494.907,2227.500 2496.537 C 2244.000 2496.972,2273.237 2496.178,2292.471 2494.773 L 2327.442 2492.219 2332.609 2502.210 C 2339.080 2514.725,2417.434 2594.704,2475.102 2647.659 C 2542.653 2709.689,2582.406 2741.851,2603.542 2751.569 C 2628.354 2762.978,2685.776 2778.623,2749.500 2791.338 C 2894.974 2820.363,2954.595 2817.631,3078.746 2776.252 C 3106.675 2766.943,3130.514 2760.490,3131.722 2761.913 C 3132.930 2763.336,3139.705 2780.700,3146.778 2800.500 C 3175.537 2881.000,3229.461 2965.072,3294.000 3030.027 C 3334.104 3070.389,3405.480 3119.414,3477.890 3156.331 C 3521.697 3178.665,3544.400 3187.443,3585.984 3198.124 C 3603.850 3202.713,3619.015 3207.015,3619.683 3207.683 C 3620.352 3208.352,3616.548 3219.609,3611.231 3232.700 C 3601.983 3255.465,3601.564 3258.262,3601.598 3297.000 C 3601.628 3331.926,3602.749 3341.423,3609.747 3366.000 C 3633.644 3449.939,3679.649 3536.660,3720.192 3574.197 C 3740.801 3593.277,3758.510 3603.141,3793.500 3615.030 C 3849.233 3633.967,3857.994 3642.119,3857.953 3675.000 C 3857.884 3730.597,3818.386 3811.962,3709.479 3980.859 C 3635.428 4095.698,3617.319 4135.765,3609.108 4202.921 C 3605.100 4235.702,3605.148 4309.942,3609.193 4335.000 C 3614.285 4366.544,3630.257 4395.885,3656.690 4422.255 C 3691.421 4456.903,3731.644 4476.361,3788.779 4486.153 C 3845.769 4495.921,3868.886 4491.628,3933.415 4459.292 C 4079.778 4385.950,4205.790 4294.818,4311.011 4186.216 C 4372.559 4122.690,4404.137 4082.975,4494.457 3955.500 C 4517.839 3922.500,4560.912 3863.012,4590.175 3823.305 C 4653.278 3737.682,4676.009 3703.675,4693.925 3668.088 C 4719.492 3617.306,4731.689 3570.064,4742.872 3478.500 C 4746.297 3450.450,4749.848 3423.840,4750.763 3419.368 C 4752.130 3412.677,4762.243 3405.036,4807.804 3376.268 C 4880.214 3330.547,4917.816 3302.218,4952.859 3266.987 C 4999.465 3220.132,5033.852 3166.084,5050.435 3113.623 C 5063.333 3072.821,5065.285 3038.802,5065.397 2853.000 C 5065.510 2664.325,5066.855 2680.619,5047.321 2634.000 C 5040.080 2616.718,5039.186 2610.918,5039.457 2583.000 C 5039.822 2545.483,5034.793 2522.111,5019.048 2488.144 C 5004.688 2457.164,4989.291 2434.546,4962.432 2404.976 C 4932.480 2372.000,4932.437 2371.768,4942.091 2295.912 C 4952.789 2211.851,4956.006 2174.007,4955.938 2133.000 C 4955.852 2080.858,4952.081 2060.911,4936.186 2028.523 C 4925.868 2007.497,4921.361 1993.741,4918.048 1973.161 C 4910.248 1924.704,4885.954 1857.753,4850.462 1786.901 C 4829.783 1745.621,4819.491 1729.461,4801.281 1709.676 C 4787.081 1694.249,4779.277 1680.300,4768.993 1651.969 C 4758.921 1624.220,4748.046 1607.165,4724.968 1582.926 C 4700.323 1557.041,4679.815 1544.265,4650.348 1536.437 C 4638.164 1533.201,4626.953 1528.741,4625.434 1526.526 C 4622.737 1522.595,4623.508 1508.077,4628.675 1465.500 C 4639.923 1372.823,4581.262 1242.386,4484.818 1145.621 C 4425.218 1085.823,4371.108 1053.764,4302.955 1037.873 C 4289.036 1034.627,4273.684 1029.922,4268.840 1027.417 C 4253.758 1019.618,4239.820 984.545,4222.431 910.637 C 4212.957 870.370,4201.746 848.682,4178.034 824.749 C 4131.532 777.811,4017.626 703.401,3916.500 653.898 C 3775.818 585.032,3638.199 542.155,3358.078 479.913 C 3305.510 468.233,3240.927 453.256,3214.560 446.631 C 3124.181 423.922,3008.782 407.758,2941.672 408.409 C 2918.477 408.633,2896.125 409.371,2892.000 410.049 M3090.000 460.002 C 3210.917 478.852,3439.939 530.909,3580.010 571.383 C 3762.940 624.242,3871.363 670.368,4016.640 757.138 C 4051.917 778.209,4088.367 798.926,4097.640 803.178 C 4106.913 807.429,4117.779 812.391,4121.787 814.204 C 4132.347 818.980,4155.667 851.922,4172.967 886.500 C 4184.081 908.713,4189.514 924.296,4193.899 946.534 C 4197.157 963.053,4206.695 996.517,4215.095 1020.898 C 4234.236 1076.453,4237.094 1100.385,4226.454 1116.000 C 4221.193 1123.720,4216.147 1127.159,4207.399 1128.988 C 4177.381 1135.264,4173.085 1137.116,4171.209 1144.591 C 4169.708 1150.574,4172.294 1155.169,4184.973 1169.042 C 4199.675 1185.128,4200.476 1186.819,4198.688 1198.001 C 4194.471 1224.369,4149.331 1323.288,4104.320 1404.793 L 4076.546 1455.086 4067.119 1448.373 C 4051.973 1437.588,4017.238 1403.828,4011.779 1394.587 C 4000.524 1375.534,3920.463 1343.665,3816.000 1316.653 C 3770.207 1304.813,3715.028 1297.630,3721.500 1304.352 C 3725.078 1308.068,3781.790 1325.840,3857.107 1346.848 C 3947.337 1372.016,3975.200 1386.367,4020.397 1430.953 C 4048.999 1459.168,4058.972 1473.326,4058.989 1485.740 C 4059.002 1495.620,4005.588 1601.222,3964.524 1672.500 C 3928.135 1735.664,3905.997 1770.984,3876.149 1813.500 C 3847.935 1853.689,3825.792 1887.792,3767.069 1981.500 C 3688.146 2107.443,3633.973 2186.742,3553.928 2293.500 C 3446.955 2436.171,3411.054 2478.403,3317.923 2571.123 C 3251.219 2637.532,3220.833 2663.151,3180.252 2687.198 C 3089.249 2741.122,2959.873 2778.337,2878.500 2773.997 C 2828.970 2771.355,2682.760 2739.730,2635.832 2721.508 C 2590.661 2703.967,2540.876 2663.600,2437.261 2560.500 C 2400.162 2523.585,2387.084 2508.502,2380.629 2495.189 C 2366.605 2466.263,2368.994 2452.288,2411.778 2313.000 C 2483.348 2079.996,2512.155 2000.900,2622.656 1734.000 C 2682.466 1589.535,2690.092 1566.859,2705.898 1486.460 C 2724.888 1389.868,2730.188 1317.931,2729.542 1165.551 C 2729.088 1058.626,2729.058 1058.141,2726.684 1119.000 C 2717.065 1365.532,2707.519 1431.192,2660.401 1574.939 C 2614.124 1716.120,2556.333 1856.909,2537.757 1873.720 C 2532.142 1878.801,2532.001 1878.492,2532.044 1861.215 C 2532.099 1839.422,2537.310 1816.791,2554.760 1762.567 C 2562.182 1739.504,2574.832 1688.204,2582.871 1648.567 C 2590.909 1608.930,2604.974 1542.750,2614.125 1501.500 C 2640.241 1383.774,2655.083 1294.689,2670.102 1165.500 C 2677.933 1098.140,2681.042 1015.187,2676.525 994.133 C 2674.711 985.681,2671.826 954.293,2670.114 924.383 C 2668.401 894.472,2665.600 845.539,2663.888 815.642 C 2659.780 743.889,2652.470 702.795,2635.474 655.913 L 2621.684 617.870 2627.639 609.685 C 2636.690 597.243,2726.146 509.615,2745.895 493.845 C 2792.350 456.748,2826.419 449.927,2958.000 451.376 C 3028.780 452.156,3047.532 453.382,3090.000 460.002 M2858.477 475.523 C 2855.754 478.246,2861.424 493.149,2880.153 532.500 C 2918.599 613.278,2958.853 769.125,2965.389 862.500 C 2967.833 897.424,2972.904 930.000,2975.896 930.000 C 2983.609 930.000,2981.142 873.572,2969.797 790.500 C 2957.192 698.193,2944.788 648.989,2916.101 577.500 C 2893.587 521.393,2864.349 469.651,2858.477 475.523 M2754.000 548.761 C 2754.000 562.931,2785.123 638.632,2792.933 643.459 C 2797.773 646.450,2796.636 640.283,2787.096 611.808 C 2778.652 586.604,2758.605 543.000,2755.462 543.000 C 2754.658 543.000,2754.000 545.592,2754.000 548.761 M3098.977 606.785 C 3129.423 622.009,3139.279 641.832,3147.064 703.500 C 3156.894 781.355,3156.051 995.932,3145.524 1095.913 C 3131.131 1232.601,3112.723 1302.515,3026.093 1549.500 C 2992.578 1645.051,2946.838 1785.888,2936.596 1825.067 C 2929.237 1853.214,2932.665 1861.817,2942.717 1840.432 C 2946.320 1832.768,2965.971 1777.673,2986.386 1717.999 C 3006.802 1658.324,3040.516 1560.430,3061.307 1500.455 C 3119.748 1331.871,3134.785 1274.105,3148.445 1165.711 C 3174.006 962.869,3176.179 780.300,3154.511 656.046 C 3147.068 613.364,3144.422 609.928,3112.620 601.653 C 3082.105 593.712,3076.813 595.703,3098.977 606.785 M2417.961 605.913 C 2423.011 609.105,2420.033 625.899,2403.320 688.500 C 2389.503 740.251,2387.556 759.920,2385.872 864.801 C 2384.265 964.902,2386.607 1029.575,2391.240 1012.999 C 2393.473 1005.008,2395.370 978.567,2403.090 847.868 C 2411.463 706.112,2434.883 606.000,2459.673 606.000 C 2470.920 606.000,2513.887 618.557,2547.780 631.748 C 2588.725 647.684,2593.505 652.300,2605.012 687.000 C 2621.498 736.717,2630.385 824.458,2632.969 963.000 C 2636.490 1151.797,2625.649 1249.790,2576.880 1470.000 C 2567.197 1513.725,2554.424 1575.825,2548.497 1608.000 C 2531.410 1700.757,2523.380 1738.830,2512.431 1779.000 C 2501.164 1820.338,2494.357 1857.872,2491.485 1894.500 C 2488.076 1937.971,2481.454 1968.853,2464.790 2019.000 C 2455.743 2046.225,2430.588 2127.225,2408.889 2199.000 C 2358.919 2364.294,2335.040 2437.531,2329.220 2443.351 C 2326.697 2445.875,2316.989 2450.161,2307.648 2452.877 C 2293.159 2457.089,2280.296 2457.559,2220.082 2456.076 C 2116.595 2453.528,2064.772 2445.173,2020.500 2423.897 C 1963.110 2396.318,1931.804 2349.537,1887.057 2224.500 C 1836.861 2084.234,1817.032 1990.309,1805.988 1840.500 C 1793.659 1673.258,1787.264 1336.241,1793.777 1197.000 C 1804.824 960.849,1831.793 835.334,1882.459 784.268 C 1944.541 721.698,2215.906 616.729,2342.744 606.222 C 2384.192 602.788,2412.834 602.670,2417.961 605.913 M2470.275 669.435 C 2465.130 679.385,2448.107 770.338,2448.038 788.250 C 2447.983 802.349,2452.788 800.222,2458.200 783.750 C 2467.088 756.698,2484.277 679.628,2483.390 670.808 C 2482.145 658.436,2476.280 657.823,2470.275 669.435 M2800.896 670.550 C 2798.652 676.397,2801.965 693.000,2805.375 693.000 C 2808.836 693.000,2808.781 669.837,2805.314 667.694 C 2803.837 666.781,2801.849 668.066,2800.896 670.550 M2213.250 683.068 C 2202.661 685.835,2208.413 690.000,2222.823 690.000 C 2238.666 690.000,2245.303 685.853,2234.216 682.882 C 2226.871 680.913,2221.306 680.963,2213.250 683.068 M2157.000 702.000 C 2157.000 703.650,2163.750 705.000,2172.000 705.000 C 2180.250 705.000,2187.012 706.013,2187.027 707.250 C 2187.042 708.488,2182.654 713.315,2177.277 717.978 L 2167.500 726.456 2184.000 724.986 C 2202.287 723.356,2230.350 712.611,2227.665 708.267 C 2223.147 700.957,2157.000 695.090,2157.000 702.000 M2493.849 705.684 C 2486.794 721.500,2483.750 751.949,2484.621 798.000 L 2485.500 844.500 2489.272 825.000 C 2495.889 790.784,2499.399 752.295,2498.436 724.500 C 2497.600 700.396,2497.108 698.378,2493.849 705.684 M3668.605 706.500 C 3667.007 719.514,3669.185 738.000,3672.315 738.000 C 3675.619 738.000,3675.488 711.744,3672.144 703.500 C 3670.014 698.250,3669.572 698.625,3668.605 706.500 M1972.554 744.750 C 1956.605 792.302,1938.643 1002.657,1932.080 1218.750 C 1926.728 1394.949,1939.650 1609.398,1968.279 1819.500 C 1990.037 1979.170,2025.794 2159.548,2039.940 2181.000 C 2046.774 2191.362,2042.065 2151.907,2022.157 2032.020 C 1959.257 1653.215,1945.327 1482.513,1952.758 1181.603 C 1956.340 1036.560,1959.352 980.489,1968.288 892.500 C 1971.639 859.500,1975.609 820.350,1977.109 805.500 C 1980.803 768.941,1980.715 741.000,1976.906 741.000 C 1975.204 741.000,1973.246 742.688,1972.554 744.750 M2198.082 742.918 C 2194.723 746.277,2199.112 750.000,2206.432 750.000 C 2215.457 750.000,2223.000 747.122,2223.000 743.679 C 2223.000 740.643,2201.028 739.972,2198.082 742.918 M2829.861 764.037 C 2826.814 774.959,2827.820 838.829,2831.219 850.305 C 2834.575 861.633,2839.562 863.179,2844.538 854.432 C 2850.040 844.762,2849.532 785.326,2843.815 769.730 C 2838.470 755.149,2832.966 752.904,2829.861 764.037 M3680.381 816.000 C 3675.956 823.425,3668.722 840.975,3664.305 855.000 C 3645.865 913.557,3595.578 1030.078,3542.602 1137.000 C 3515.796 1191.102,3512.350 1199.565,3521.222 1189.500 C 3548.432 1158.632,3586.670 1087.736,3626.396 994.500 C 3662.686 909.327,3691.639 824.342,3689.445 809.429 C 3688.545 803.308,3687.488 804.074,3680.381 816.000 M2289.000 867.000 C 2285.849 869.037,2290.568 869.922,2304.750 869.954 C 2316.281 869.980,2325.000 868.708,2325.000 867.000 C 2325.000 863.156,2294.948 863.156,2289.000 867.000 M2308.497 901.277 C 2302.877 905.524,2303.411 905.815,2317.000 905.905 C 2327.288 905.972,2331.142 904.911,2330.269 902.250 C 2328.439 896.678,2315.358 896.093,2308.497 901.277 M1734.432 915.171 C 1771.791 918.984,1780.358 923.287,1777.917 937.017 C 1767.161 997.511,1762.162 1058.969,1757.993 1182.000 C 1749.592 1429.898,1760.699 1815.323,1780.773 1972.500 C 1790.459 2048.338,1799.254 2085.417,1827.273 2168.552 C 1847.345 2228.106,1853.554 2254.646,1848.579 2259.621 C 1841.159 2267.041,1828.070 2252.326,1762.500 2162.843 C 1747.650 2142.577,1735.122 2127.944,1734.659 2130.326 C 1733.747 2135.024,1765.107 2195.117,1779.890 2217.000 C 1784.906 2224.425,1798.296 2242.242,1809.646 2256.594 L 1830.282 2282.687 1815.243 2314.569 C 1806.972 2332.105,1793.778 2355.462,1785.924 2366.476 C 1739.781 2431.181,1647.611 2489.509,1560.306 2509.254 C 1532.809 2515.473,1457.355 2523.635,1454.701 2520.677 C 1449.141 2514.480,1364.811 2385.584,1336.707 2340.327 C 1214.163 2142.987,1101.059 1917.145,1070.869 1809.509 C 1057.755 1762.756,1044.503 1738.992,1041.658 1757.131 C 1040.148 1766.759,1072.621 1860.143,1098.294 1920.000 C 1127.420 1987.910,1214.772 2164.351,1262.799 2252.284 C 1322.268 2361.163,1352.927 2410.066,1414.468 2494.203 C 1434.973 2522.236,1437.670 2529.000,1428.344 2529.000 C 1419.357 2529.000,1391.772 2496.946,1330.137 2414.878 C 1298.587 2372.870,1259.437 2323.227,1243.137 2304.560 C 1226.837 2285.893,1205.637 2259.568,1196.027 2246.060 C 1155.355 2188.892,1079.528 2012.529,1033.911 1869.000 C 943.143 1583.410,936.738 1438.411,1009.455 1315.415 C 1055.001 1238.376,1145.665 1155.156,1284.000 1063.408 C 1388.813 993.893,1475.392 952.265,1562.574 929.467 C 1624.499 913.273,1674.824 909.087,1734.432 915.171 M4071.000 933.371 C 4071.000 936.991,4079.277 952.901,4089.394 968.726 C 4099.511 984.552,4109.624 1000.472,4111.867 1004.104 C 4119.130 1015.861,4132.191 1025.952,4142.698 1027.923 C 4163.564 1031.837,4164.054 1015.203,4144.333 972.519 C 4133.199 948.421,4120.717 930.000,4115.522 930.000 C 4111.129 930.000,4114.593 942.748,4124.898 964.500 C 4136.986 990.015,4138.457 996.000,4132.640 996.000 C 4130.020 996.000,4123.517 989.708,4118.188 982.018 C 4085.029 934.162,4071.000 919.699,4071.000 933.371 M3716.852 935.723 C 3720.419 942.389,3754.725 966.000,3760.842 966.000 C 3765.824 966.000,3766.148 961.751,3761.787 953.601 C 3757.117 944.877,3732.232 930.000,3722.307 930.000 C 3714.856 930.000,3714.173 930.717,3716.852 935.723 M3683.680 965.656 C 3677.418 970.726,3677.151 971.863,3681.097 976.634 C 3686.595 983.278,3713.314 995.931,3721.929 995.971 C 3733.968 996.026,3735.639 978.366,3724.636 967.364 C 3715.270 957.998,3694.221 957.120,3683.680 965.656 M1626.282 995.485 C 1625.797 1007.516,1641.005 1172.942,1645.635 1206.000 C 1652.164 1252.612,1662.000 1279.200,1662.000 1250.236 C 1662.000 1223.729,1627.112 974.898,1626.282 995.485 M1453.500 1011.000 C 1449.386 1012.768,1454.392 1013.645,1469.427 1013.789 C 1483.331 1013.923,1490.676 1012.902,1489.500 1011.000 C 1487.266 1007.386,1461.911 1007.386,1453.500 1011.000 M2851.875 1020.375 C 2850.844 1025.531,2849.987 1071.094,2849.970 1121.625 C 2849.912 1301.017,2833.781 1440.543,2785.239 1681.500 C 2723.421 1988.357,2684.465 2097.836,2599.494 2203.500 C 2574.450 2234.643,2569.559 2242.755,2574.124 2245.577 C 2578.011 2247.979,2588.876 2241.003,2606.392 2224.859 C 2664.820 2171.008,2719.163 2046.037,2765.702 1858.500 C 2808.765 1684.972,2856.557 1405.367,2868.258 1258.500 C 2874.779 1176.657,2866.666 1011.000,2856.137 1011.000 C 2854.824 1011.000,2852.906 1015.219,2851.875 1020.375 M1449.684 1044.118 C 1433.785 1050.504,1441.178 1067.825,1457.202 1061.733 C 1467.341 1057.878,1482.000 1047.275,1482.000 1043.796 C 1482.000 1040.254,1458.726 1040.486,1449.684 1044.118 M4340.080 1083.110 C 4392.727 1108.891,4480.129 1185.933,4518.633 1240.500 C 4552.765 1288.870,4576.891 1346.691,4584.198 1397.635 C 4598.095 1494.528,4561.147 1602.247,4463.679 1749.000 C 4425.277 1806.821,4407.000 1837.745,4407.000 1844.900 C 4407.000 1853.476,4421.122 1846.480,4436.927 1830.076 C 4480.705 1784.636,4540.083 1699.633,4574.971 1632.459 C 4602.467 1579.517,4605.648 1576.997,4642.776 1578.737 C 4670.746 1580.048,4687.942 1588.062,4703.945 1607.247 C 4722.008 1628.900,4743.571 1681.561,4747.447 1713.488 C 4751.716 1748.659,4717.414 1824.891,4663.298 1900.500 C 4623.378 1956.274,4601.622 2001.000,4614.411 2001.000 C 4637.311 2001.000,4714.711 1903.027,4750.437 1828.819 C 4768.032 1792.270,4772.958 1777.290,4772.983 1760.250 C 4773.061 1708.013,4850.850 1851.785,4873.543 1946.107 C 4887.341 2003.458,4876.059 2024.620,4762.716 2154.000 C 4689.740 2237.301,4670.252 2265.000,4684.620 2265.000 C 4700.812 2265.000,4722.901 2245.484,4815.016 2149.794 C 4854.579 2108.694,4873.687 2093.179,4881.632 2095.701 C 4886.767 2097.330,4887.101 2096.793,4884.257 2091.481 C 4876.602 2077.177,4884.858 2053.405,4898.687 2049.934 C 4913.714 2046.163,4920.028 2065.701,4922.146 2122.520 C 4924.067 2174.084,4920.565 2208.365,4904.675 2293.500 C 4895.003 2345.320,4890.711 2362.078,4884.701 2371.500 C 4873.316 2389.344,4837.246 2425.668,4785.000 2471.899 C 4759.425 2494.530,4727.604 2523.048,4714.287 2535.273 C 4670.565 2575.409,4508.393 2697.904,4415.674 2760.828 C 4274.699 2856.501,3932.706 3047.309,3789.000 3110.468 C 3746.681 3129.068,3659.097 3162.037,3646.643 3164.057 C 3635.274 3165.900,3579.072 3152.319,3549.000 3140.461 C 3499.129 3120.797,3431.305 3080.094,3379.320 3038.633 C 3346.576 3012.517,3288.772 2956.014,3261.537 2923.500 C 3206.653 2857.976,3168.224 2782.090,3176.788 2756.142 C 3180.709 2744.263,3214.410 2710.804,3271.390 2662.218 C 3375.760 2573.226,3463.972 2474.105,3598.119 2295.084 C 3634.644 2246.342,3665.346 2208.791,3682.770 2191.551 C 3736.154 2138.733,3846.454 1978.399,3931.523 1829.960 C 3946.011 1804.679,3982.029 1733.934,4011.563 1672.748 C 4074.065 1543.262,4147.203 1399.209,4175.353 1350.149 C 4209.010 1291.490,4226.898 1242.363,4234.271 1188.339 C 4237.916 1161.627,4239.863 1155.417,4247.910 1144.839 C 4257.678 1131.999,4264.471 1118.463,4273.316 1094.207 C 4282.632 1068.665,4303.499 1065.196,4340.080 1083.110 M1452.000 1110.385 C 1444.705 1113.307,1444.664 1113.487,1450.500 1116.945 C 1457.682 1121.200,1512.182 1120.875,1519.945 1116.531 C 1533.196 1109.115,1469.542 1103.357,1452.000 1110.385 M1665.297 1137.199 C 1664.979 1167.944,1668.739 1194.228,1676.080 1212.574 C 1686.868 1239.536,1689.336 1209.720,1680.062 1164.471 C 1676.796 1148.537,1672.205 1129.425,1669.859 1122.000 L 1665.593 1108.500 1665.297 1137.199 M1287.858 1123.124 C 1291.595 1146.154,1336.454 1223.681,1346.176 1223.913 C 1348.821 1223.975,1349.083 1221.979,1347.113 1216.796 C 1337.950 1192.696,1296.105 1118.273,1289.381 1114.118 C 1287.075 1112.692,1286.610 1115.437,1287.858 1123.124 M1266.000 1182.612 C 1266.000 1193.879,1291.941 1243.226,1311.530 1269.222 C 1321.793 1282.842,1347.347 1310.976,1368.318 1331.743 C 1454.229 1416.819,1473.550 1460.232,1498.615 1624.500 C 1513.832 1724.233,1531.054 1796.617,1542.054 1807.078 C 1546.405 1811.216,1545.475 1803.173,1536.547 1759.500 C 1533.175 1743.000,1526.252 1696.498,1521.164 1656.163 C 1503.168 1513.496,1486.092 1455.049,1443.642 1390.828 C 1436.127 1379.459,1411.594 1351.109,1389.125 1327.828 C 1338.663 1275.545,1323.932 1257.819,1292.916 1212.057 C 1279.475 1192.226,1267.920 1176.000,1267.239 1176.000 C 1266.557 1176.000,1266.000 1178.975,1266.000 1182.612 M1476.750 1180.809 C 1469.631 1184.019,1473.034 1191.320,1483.732 1195.790 C 1495.769 1200.820,1530.367 1200.492,1532.068 1195.332 C 1534.643 1187.519,1488.648 1175.443,1476.750 1180.809 M2200.738 1230.750 C 2164.710 1350.365,2139.035 1515.097,2126.743 1705.500 C 2122.246 1775.147,2122.242 1958.306,2126.735 2022.000 C 2131.844 2094.420,2140.659 2168.846,2152.350 2238.270 C 2166.658 2323.236,2172.935 2348.067,2190.575 2389.500 C 2220.908 2460.746,2230.324 2458.448,2203.958 2386.234 C 2179.115 2318.195,2165.441 2250.272,2154.182 2139.000 C 2143.781 2036.204,2141.078 1960.247,2142.921 1822.509 C 2145.582 1623.621,2154.934 1530.219,2190.085 1351.500 C 2205.594 1272.648,2213.968 1224.040,2213.988 1212.750 C 2214.013 1198.645,2207.912 1206.934,2200.738 1230.750 M1062.986 1357.553 C 1050.837 1370.232,1045.927 1383.000,1053.200 1383.000 C 1058.799 1383.000,1076.687 1367.715,1082.953 1357.575 C 1090.553 1345.279,1090.509 1344.000,1082.486 1344.000 C 1078.678 1344.000,1070.577 1349.630,1062.986 1357.553 M1101.000 1384.759 C 1081.398 1395.920,1074.000 1403.802,1074.000 1413.523 C 1074.000 1418.185,1075.273 1422.000,1076.829 1422.000 C 1081.021 1422.000,1118.479 1389.578,1122.096 1382.820 C 1126.619 1374.370,1117.827 1375.178,1101.000 1384.759 M4428.000 1410.832 C 4428.000 1422.856,4453.114 1437.668,4465.465 1432.929 C 4472.110 1430.378,4468.867 1426.052,4452.554 1415.707 C 4438.003 1406.479,4428.000 1404.493,4428.000 1410.832 M2323.441 1438.169 C 2317.689 1446.948,2318.441 1454.560,2325.499 1459.004 C 2333.505 1464.046,2340.483 1456.155,2339.402 1443.282 C 2338.282 1429.950,2330.467 1427.447,2323.441 1438.169 M3930.226 1457.682 C 3926.826 1462.457,3917.177 1481.584,3908.784 1500.187 C 3858.688 1611.218,3756.689 1801.878,3701.847 1887.000 C 3657.793 1955.377,3625.298 2018.298,3631.061 2024.061 C 3633.660 2026.660,3629.424 2032.808,3684.147 1947.000 C 3781.811 1793.857,3832.912 1702.649,3887.528 1584.000 C 3928.477 1495.040,3946.120 1449.000,3939.261 1449.000 C 3937.692 1449.000,3933.627 1452.907,3930.226 1457.682 M4429.364 1469.250 C 4432.024 1480.144,4441.256 1489.311,4447.250 1487.011 C 4454.037 1484.407,4453.126 1478.091,4444.643 1468.938 C 4434.561 1458.059,4426.671 1458.220,4429.364 1469.250 M4380.000 1477.967 C 4380.000 1485.144,4438.357 1548.000,4445.020 1548.000 C 4453.584 1548.000,4447.483 1535.864,4425.939 1510.047 C 4410.064 1491.023,4380.000 1470.029,4380.000 1477.967 M1152.750 1498.987 C 1140.788 1503.119,1131.000 1507.936,1131.000 1509.691 C 1131.000 1514.007,1185.091 1510.735,1194.466 1505.851 C 1203.772 1501.004,1203.404 1501.543,1201.250 1495.929 C 1198.488 1488.732,1178.854 1489.970,1152.750 1498.987 M4359.000 1510.383 C 4359.000 1514.927,4372.944 1532.931,4407.243 1572.670 C 4418.242 1585.414,4429.500 1600.602,4432.261 1606.420 C 4435.022 1612.239,4438.422 1617.000,4439.816 1617.000 C 4443.473 1617.000,4446.336 1603.436,4444.040 1596.988 C 4438.156 1580.469,4400.093 1534.666,4378.223 1517.789 C 4361.423 1504.825,4359.000 1503.891,4359.000 1510.383 M925.082 1553.250 C 925.899 1556.138,927.427 1567.275,928.477 1578.000 C 934.548 1640.005,974.618 1812.680,1004.011 1903.500 C 1031.010 1986.921,1129.298 2208.966,1158.156 2251.731 C 1166.413 2263.968,1187.141 2290.743,1204.217 2311.230 C 1272.625 2393.306,1357.609 2517.002,1373.804 2558.069 C 1381.350 2577.204,1368.602 2578.586,1341.271 2561.596 C 1329.414 2554.225,1321.212 2551.537,1307.576 2550.550 C 1282.922 2548.767,1280.203 2552.251,1292.563 2569.787 C 1297.918 2577.384,1301.192 2583.127,1299.839 2582.550 C 1298.486 2581.972,1281.881 2571.180,1262.939 2558.568 C 1215.228 2526.798,1151.692 2490.159,1073.166 2449.135 C 1036.500 2429.979,993.675 2405.935,978.000 2395.705 C 907.166 2349.475,840.123 2280.610,805.263 2218.275 C 799.351 2207.703,793.273 2198.287,791.757 2197.350 C 786.136 2193.876,789.270 2210.056,797.597 2227.500 C 810.770 2255.098,831.289 2280.939,872.687 2322.068 C 937.145 2386.107,983.005 2419.419,1070.799 2465.975 C 1099.564 2481.228,1150.189 2509.951,1183.299 2529.805 C 1259.554 2575.527,1301.819 2596.147,1319.702 2596.350 C 1326.964 2596.433,1333.410 2595.050,1334.026 2593.278 C 1334.643 2591.506,1330.111 2583.460,1323.955 2575.397 L 1312.761 2560.738 1326.858 2570.861 C 1351.933 2588.869,1353.903 2596.697,1339.020 2619.188 C 1327.640 2636.384,1310.439 2644.489,1285.500 2644.409 C 1258.120 2644.321,1240.268 2637.940,1201.306 2614.314 C 1126.222 2568.784,996.371 2500.146,930.000 2470.903 C 862.027 2440.955,799.863 2402.996,715.199 2339.740 C 627.898 2274.514,590.870 2228.028,577.172 2166.460 C 569.586 2132.364,572.649 2083.641,584.926 2043.117 C 595.772 2007.312,599.631 1983.000,594.468 1983.000 C 586.541 1983.000,565.423 2039.612,558.172 2080.301 C 556.428 2090.092,554.900 2111.692,554.777 2128.301 L 554.553 2158.500 546.974 2137.500 C 532.381 2097.072,534.728 2036.600,553.725 1963.507 C 563.866 1924.491,575.966 1894.369,598.215 1852.760 L 617.325 1817.019 630.258 1845.260 C 658.313 1906.519,690.970 1968.430,711.720 1999.696 C 723.699 2017.746,736.187 2037.781,739.470 2044.218 C 751.671 2068.133,850.588 2164.305,890.861 2191.407 C 926.010 2215.060,912.411 2197.236,833.057 2115.645 C 770.009 2050.820,747.339 2023.360,718.859 1977.319 C 699.348 1945.777,624.000 1807.551,624.000 1803.300 C 624.000 1799.746,687.942 1739.572,713.162 1719.392 C 736.817 1700.465,742.531 1698.574,751.269 1706.783 C 758.578 1713.650,777.020 1751.216,799.977 1806.000 C 856.941 1941.942,978.149 2140.690,1060.176 2232.656 C 1086.104 2261.725,1124.145 2296.855,1126.809 2294.191 C 1128.215 2292.785,1119.566 2281.757,1059.634 2208.546 C 1028.332 2170.308,991.151 2113.289,919.833 1994.156 C 845.071 1869.269,838.707 1857.479,816.662 1803.000 C 787.626 1731.244,773.169 1669.369,779.739 1644.971 C 787.732 1615.285,830.446 1579.355,883.164 1557.972 C 910.796 1546.764,922.861 1545.405,925.082 1553.250 M4143.675 1572.591 C 4130.046 1610.279,4125.000 1628.911,4125.000 1641.545 C 4125.000 1663.146,4134.973 1651.902,4144.146 1619.960 C 4148.770 1603.859,4155.927 1550.927,4153.771 1548.771 C 4153.172 1548.172,4148.629 1558.891,4143.675 1572.591 M2322.068 1572.750 C 2314.683 1589.581,2311.306 1608.000,2315.605 1608.000 C 2320.265 1608.000,2330.486 1586.768,2332.804 1572.275 C 2335.450 1555.731,2329.419 1555.997,2322.068 1572.750 M4060.084 1621.544 C 4054.941 1633.070,4039.072 1675.226,4024.820 1715.225 C 3999.543 1786.164,3979.088 1837.172,3963.754 1867.500 C 3947.288 1900.068,3905.667 1966.155,3862.815 2027.775 C 3788.441 2134.720,3776.995 2151.959,3777.122 2156.834 C 3777.282 2162.958,3787.903 2150.667,3826.237 2100.000 C 3908.600 1991.137,3951.097 1925.380,3976.670 1867.228 C 4007.224 1797.750,4051.958 1678.693,4066.469 1628.235 C 4074.137 1601.571,4070.634 1597.900,4060.084 1621.544 M1083.122 1677.639 C 1082.871 1682.047,1095.343 1710.586,1128.075 1780.500 C 1176.095 1883.070,1209.331 1959.801,1259.969 2085.000 C 1318.654 2230.094,1341.461 2280.888,1357.645 2302.535 C 1382.922 2336.344,1383.554 2327.113,1359.311 2278.194 C 1349.582 2258.562,1325.301 2201.751,1305.354 2151.947 C 1228.336 1959.648,1115.602 1713.130,1092.273 1686.000 C 1087.307 1680.225,1083.189 1676.463,1083.122 1677.639 M2311.569 1752.000 C 2307.855 1820.977,2318.621 2116.162,2325.410 2131.500 C 2326.973 2135.032,2327.521 2074.571,2326.743 1984.500 C 2324.950 1777.206,2316.875 1653.467,2311.569 1752.000 M4084.168 1773.750 C 4061.736 1801.960,4039.135 1835.152,4005.010 1890.000 C 3890.957 2073.311,3725.064 2301.741,3632.170 2403.389 C 3567.791 2473.834,3460.133 2571.881,3386.426 2627.193 C 3355.569 2650.349,3341.021 2659.570,3276.899 2696.612 C 3254.628 2709.478,3248.374 2715.000,3256.074 2715.000 C 3272.376 2715.000,3383.606 2649.629,3436.500 2608.961 C 3505.270 2556.087,3617.834 2447.404,3682.080 2371.848 C 3788.975 2246.134,3914.163 2070.731,4035.952 1876.035 C 4070.165 1821.340,4104.000 1762.154,4104.000 1757.000 C 4104.000 1751.433,4097.645 1756.800,4084.168 1773.750 M2440.500 1773.000 C 2439.349 1774.863,2444.969 1776.000,2455.323 1776.000 C 2464.495 1776.000,2472.000 1774.650,2472.000 1773.000 C 2472.000 1771.350,2465.330 1770.000,2457.177 1770.000 C 2449.024 1770.000,2441.520 1771.350,2440.500 1773.000 M3699.835 1794.845 C 3694.859 1801.805,3681.035 1825.725,3669.114 1848.000 C 3642.131 1898.420,3606.848 1951.400,3565.224 2004.000 C 3535.907 2041.048,3508.977 2078.082,3456.000 2154.205 C 3415.839 2211.913,3357.580 2280.237,3257.767 2386.683 C 3200.303 2447.966,3167.885 2485.003,3161.866 2496.251 C 3135.913 2544.744,3322.685 2349.685,3434.504 2211.516 C 3449.630 2192.825,3477.128 2156.375,3495.609 2130.516 C 3514.091 2104.657,3548.758 2057.175,3572.648 2025.000 C 3648.662 1922.624,3688.624 1856.501,3708.137 1800.814 C 3711.160 1792.186,3712.564 1784.466,3711.257 1783.659 C 3709.950 1782.851,3704.810 1787.885,3699.835 1794.845 M3928.981 1813.086 C 3895.170 1875.619,3782.686 2043.686,3777.869 2038.869 C 3776.168 2037.168,3786.655 2016.804,3800.168 1995.567 C 3886.125 1860.471,3934.876 1788.000,3939.798 1788.000 C 3941.308 1788.000,3936.441 1799.289,3928.981 1813.086 M1308.106 1796.803 C 1302.731 1806.845,1304.461 1817.509,1312.299 1822.644 C 1327.652 1832.704,1338.844 1814.107,1327.330 1797.668 C 1321.578 1789.456,1312.262 1789.037,1308.106 1796.803 M2442.264 1807.182 C 2439.584 1810.411,2439.890 1812.462,2443.606 1816.178 C 2453.390 1825.962,2473.469 1826.468,2479.194 1817.074 C 2481.835 1812.741,2481.328 1810.778,2476.677 1807.324 C 2469.216 1801.784,2446.820 1801.692,2442.264 1807.182 M1511.825 1851.750 C 1523.731 1885.834,1553.532 1956.231,1555.946 1955.974 C 1561.550 1955.376,1556.493 1933.398,1543.366 1901.303 C 1528.577 1865.146,1513.213 1836.000,1508.941 1836.000 C 1507.501 1836.000,1508.799 1843.088,1511.825 1851.750 M3120.345 1838.723 C 3117.189 1840.722,3119.712 1843.951,3130.845 1852.160 C 3145.905 1863.264,3166.468 1871.532,3170.068 1867.932 C 3173.775 1864.225,3160.340 1849.598,3146.939 1842.750 C 3132.714 1835.482,3126.863 1834.596,3120.345 1838.723 M2439.000 1840.697 C 2439.000 1846.670,2446.485 1854.025,2455.636 1857.045 C 2467.061 1860.815,2482.443 1858.761,2479.419 1853.869 C 2474.360 1845.684,2439.000 1834.160,2439.000 1840.697 M2459.250 1874.005 C 2448.953 1876.819,2454.223 1881.329,2466.750 1880.422 C 2473.763 1879.915,2479.204 1878.150,2478.843 1876.500 C 2478.113 1873.164,2467.346 1871.793,2459.250 1874.005 M3111.000 1954.702 C 3111.000 1955.639,3117.075 1963.862,3124.500 1972.977 C 3131.925 1982.092,3138.000 1991.542,3138.000 1993.977 C 3138.000 2000.593,3126.604 1996.092,3113.429 1984.272 C 3094.063 1966.897,3072.689 1959.604,3067.193 1968.497 C 3063.932 1973.773,3078.913 1984.555,3112.500 2001.105 C 3149.829 2019.499,3157.501 2021.100,3170.250 2013.161 C 3183.397 2004.973,3182.603 1997.522,3167.250 1985.014 C 3143.738 1965.857,3111.000 1948.216,3111.000 1954.702 M1650.000 2077.211 C 1650.000 2098.181,1701.482 2206.093,1737.515 2260.651 C 1748.768 2277.690,1759.421 2292.524,1761.187 2293.616 C 1767.682 2297.630,1767.720 2291.702,1761.307 2274.811 C 1752.660 2252.037,1663.110 2082.206,1655.729 2074.583 C 1650.046 2068.715,1650.000 2068.736,1650.000 2077.211 M765.095 2143.000 C 765.028 2153.288,766.089 2157.142,768.750 2156.269 C 774.322 2154.439,774.907 2141.358,769.723 2134.497 C 765.476 2128.877,765.185 2129.411,765.095 2143.000 M4519.023 2148.545 C 4513.811 2154.020,4498.442 2175.375,4484.869 2196.000 C 4412.125 2306.547,4333.479 2396.272,4230.033 2486.738 C 4176.951 2533.158,4155.000 2554.288,4155.000 2558.963 C 4155.000 2563.102,4163.413 2558.818,4183.500 2544.449 C 4262.658 2487.827,4352.574 2398.767,4436.590 2293.770 C 4490.806 2226.015,4531.838 2160.262,4529.475 2144.922 C 4528.569 2139.035,4527.833 2139.290,4519.023 2148.545 M1354.187 2184.683 C 1355.252 2190.009,1363.361 2209.418,1372.207 2227.815 C 1410.187 2306.799,1465.404 2392.813,1501.266 2428.857 C 1523.094 2450.797,1542.515 2465.958,1548.827 2465.989 C 1554.036 2466.014,1540.985 2447.919,1516.620 2421.333 C 1477.263 2378.388,1439.805 2323.606,1402.544 2254.500 C 1384.993 2221.949,1356.292 2175.000,1353.943 2175.000 C 1353.012 2175.000,1353.121 2179.357,1354.187 2184.683 M823.763 2189.575 C 821.746 2192.837,830.928 2200.845,853.100 2215.161 C 862.780 2221.412,887.080 2239.584,907.100 2255.544 C 978.585 2312.532,1065.952 2365.909,1192.500 2429.908 C 1237.050 2452.438,1282.147 2476.526,1292.715 2483.436 C 1313.705 2497.161,1328.608 2500.479,1323.109 2490.204 C 1314.698 2474.488,1285.498 2456.530,1185.000 2405.265 C 1072.766 2348.013,1016.979 2314.843,927.653 2252.249 C 860.049 2204.877,826.729 2184.776,823.763 2189.575 M1959.072 2204.866 C 1957.223 2208.321,1956.143 2220.756,1956.646 2232.797 L 1957.553 2254.500 1964.789 2239.500 C 1973.574 2221.288,1974.919 2201.176,1967.452 2199.662 C 1964.658 2199.095,1960.917 2201.418,1959.072 2204.866 M2797.734 2226.926 C 2783.704 2245.320,2769.425 2292.000,2777.828 2292.000 C 2781.753 2292.000,2810.138 2248.201,2814.211 2235.860 C 2820.777 2215.965,2810.390 2210.333,2797.734 2226.926 M4023.645 2229.750 C 4011.887 2244.018,3986.946 2304.682,3987.067 2318.720 L 3987.133 2326.500 3993.021 2319.000 C 4006.149 2302.276,4035.000 2240.100,4035.000 2228.530 C 4035.000 2224.671,4027.133 2225.516,4023.645 2229.750 M712.500 2386.749 C 772.406 2431.625,823.502 2460.914,915.807 2503.289 C 960.046 2523.598,1034.771 2563.060,1120.500 2611.385 C 1234.291 2675.529,1258.537 2685.637,1296.420 2684.724 C 1309.472 2684.409,1321.112 2685.112,1322.285 2686.285 C 1323.458 2687.458,1319.215 2698.112,1312.854 2709.959 C 1276.322 2778.009,1274.441 2782.347,1272.893 2802.135 C 1271.168 2824.194,1276.628 2886.741,1291.606 3016.500 C 1303.322 3118.005,1303.908 3132.397,1297.353 3157.620 C 1287.172 3196.796,1241.035 3286.324,1222.757 3302.372 C 1211.520 3312.238,1186.014 3322.825,1162.941 3327.201 C 1139.710 3331.607,1082.200 3330.550,1058.092 3325.275 C 1013.417 3315.500,926.096 3265.107,884.418 3225.049 C 867.271 3208.569,864.000 3203.836,864.000 3195.510 C 864.000 3187.297,863.065 3185.892,858.554 3187.324 C 855.233 3188.378,847.694 3185.466,839.232 3179.862 C 819.081 3166.514,748.164 3092.070,719.969 3054.666 C 687.835 3012.037,684.333 3004.568,622.231 2846.250 C 613.008 2822.738,590.165 2772.450,571.468 2734.500 C 531.683 2653.746,515.306 2614.559,498.121 2559.000 L 485.593 2518.500 518.869 2398.500 C 537.171 2332.500,554.220 2271.259,556.756 2262.408 L 561.366 2246.317 618.933 2303.049 C 654.030 2337.637,690.552 2370.308,712.500 2386.749 M1976.850 2283.295 C 1968.712 2299.245,1967.480 2319.861,1974.576 2321.325 C 1982.173 2322.893,1989.000 2306.953,1989.000 2287.649 C 1989.000 2278.492,1987.677 2271.000,1986.061 2271.000 C 1984.445 2271.000,1980.299 2276.533,1976.850 2283.295 M568.078 2281.277 C 570.793 2285.421,579.067 2298.781,586.466 2310.967 C 612.811 2354.361,678.656 2424.422,746.939 2481.714 C 783.565 2512.445,809.069 2530.436,852.297 2556.037 C 871.436 2567.371,900.972 2587.187,917.934 2600.072 C 986.019 2651.794,1007.142 2665.442,1074.000 2700.907 C 1131.864 2731.601,1243.044 2778.137,1257.929 2777.892 C 1264.075 2777.791,1263.925 2777.314,1255.611 2770.520 C 1250.722 2766.524,1224.439 2752.735,1197.204 2739.878 C 1059.509 2674.872,959.827 2622.558,968.283 2619.739 C 970.293 2619.069,985.789 2623.891,1002.719 2630.455 C 1037.299 2643.861,1086.420 2659.983,1154.538 2680.281 C 1199.127 2693.568,1217.160 2696.922,1213.673 2691.279 C 1210.522 2686.181,1147.637 2661.525,1084.500 2640.633 C 993.636 2610.566,943.112 2588.227,876.663 2548.739 C 800.958 2503.750,755.584 2465.962,646.821 2357.326 C 600.798 2311.356,565.364 2277.134,568.078 2281.277 M1634.250 2328.240 C 1626.887 2332.529,1627.718 2339.022,1636.353 2344.680 C 1644.777 2350.199,1652.754 2348.559,1660.815 2339.652 C 1666.292 2333.599,1666.288 2333.362,1660.637 2329.229 C 1653.914 2324.313,1641.773 2323.858,1634.250 2328.240 M2019.000 2365.323 C 2019.000 2376.441,2020.305 2385.000,2022.000 2385.000 C 2023.663 2385.000,2025.000 2377.059,2025.000 2367.177 C 2025.000 2357.374,2023.650 2348.520,2022.000 2347.500 C 2020.116 2346.336,2019.000 2352.969,2019.000 2365.323 M1635.750 2374.987 C 1627.994 2378.116,1632.427 2382.000,1643.755 2382.000 C 1659.098 2382.000,1667.050 2379.145,1661.502 2375.628 C 1657.195 2372.899,1641.871 2372.517,1635.750 2374.987 M1675.500 2395.831 C 1634.875 2411.567,1624.211 2425.737,1658.349 2418.623 C 1680.166 2414.076,1714.190 2397.176,1715.470 2390.250 C 1716.928 2382.361,1706.528 2383.813,1675.500 2395.831 M2711.440 2393.232 C 2708.952 2396.129,2691.371 2422.125,2672.371 2451.000 C 2631.037 2513.814,2613.217 2532.302,2587.137 2539.424 C 2512.999 2559.670,2494.545 2571.094,2536.250 2570.927 C 2573.259 2570.778,2603.267 2558.694,2631.469 2532.584 C 2654.953 2510.843,2674.405 2481.765,2699.126 2431.447 C 2717.868 2393.300,2721.765 2381.205,2711.440 2393.232 M3925.325 2415.457 C 3918.736 2422.631,3900.655 2446.050,3885.145 2467.500 C 3838.519 2531.981,3812.642 2562.760,3731.093 2650.731 C 3697.019 2687.488,3688.009 2699.009,3691.000 2702.000 C 3701.277 2712.277,3854.364 2543.766,3906.762 2464.500 C 3938.993 2415.741,3948.757 2389.944,3925.325 2415.457 M4945.253 2448.750 C 4975.939 2479.985,4990.493 2506.965,4990.497 2532.623 C 4990.500 2548.653,4990.979 2549.802,4998.000 2550.623 C 5004.008 2551.326,5005.684 2553.401,5006.426 2561.059 C 5009.120 2588.871,4968.851 2626.725,4872.094 2687.335 C 4824.385 2717.221,4806.018 2731.018,4809.417 2734.417 C 4812.044 2737.044,4842.318 2725.542,4872.353 2710.506 C 4897.321 2698.007,4929.814 2677.757,4970.701 2649.215 C 4977.962 2644.147,4986.279 2640.000,4989.182 2640.000 C 4997.387 2640.000,5023.450 2662.174,5029.006 2673.883 C 5035.709 2688.009,5035.531 2725.737,5028.083 2869.500 C 5020.874 3008.658,5019.775 3023.587,5013.960 3061.500 C 5000.195 3151.244,4970.520 3202.742,4899.954 3259.347 C 4823.709 3320.508,4773.601 3347.810,4638.056 3402.051 C 4511.636 3452.639,4334.747 3520.871,4308.621 3529.124 C 4247.560 3548.413,4179.662 3562.418,4075.500 3577.207 C 3958.635 3593.800,3958.455 3593.814,3917.410 3589.498 C 3783.880 3575.458,3734.644 3544.833,3684.217 3444.454 C 3637.106 3350.673,3628.679 3244.255,3665.567 3208.915 C 3670.039 3204.630,3681.079 3198.560,3690.099 3195.425 C 3725.060 3183.277,3903.134 3103.560,3967.284 3071.341 C 4001.251 3054.282,4039.026 3040.395,4089.000 3026.596 C 4166.162 3005.291,4228.785 2977.098,4307.320 2928.309 C 4397.683 2872.173,4468.457 2814.503,4576.474 2708.992 C 4619.552 2666.913,4683.615 2607.513,4718.836 2576.992 C 4790.738 2514.684,4883.780 2437.878,4897.468 2429.531 C 4913.475 2419.769,4918.940 2421.967,4945.253 2448.750 M3788.078 2495.499 C 3693.311 2613.217,3603.478 2692.093,3483.000 2763.365 C 3457.425 2778.495,3414.140 2804.129,3386.811 2820.331 C 3359.482 2836.532,3334.636 2852.535,3331.596 2855.894 C 3326.213 2861.842,3326.225 2862.000,3332.055 2862.000 C 3335.347 2862.000,3359.519 2851.303,3385.770 2838.229 C 3473.472 2794.552,3571.799 2733.526,3620.862 2692.320 C 3675.556 2646.386,3757.803 2560.787,3795.963 2510.084 C 3813.704 2486.512,3832.161 2452.984,3830.365 2447.594 C 3829.765 2445.796,3810.736 2467.353,3788.078 2495.499 M582.000 2518.107 C 582.000 2538.297,590.451 2582.112,597.511 2598.523 C 604.953 2615.822,611.758 2616.751,615.833 2601.025 C 618.766 2589.705,616.068 2554.014,612.093 2551.557 C 610.753 2550.729,607.424 2553.458,604.696 2557.621 C 601.968 2561.785,598.643 2564.516,597.307 2563.690 C 595.971 2562.864,593.977 2551.382,592.876 2538.174 C 591.774 2524.966,590.082 2512.099,589.115 2509.580 C 585.710 2500.705,582.000 2505.151,582.000 2518.107 M2925.000 2564.783 C 2925.000 2569.537,2981.250 2601.000,2989.749 2601.000 C 2990.437 2601.000,2991.000 2598.369,2991.000 2595.153 C 2991.000 2591.937,2986.355 2585.762,2980.677 2581.432 C 2962.703 2567.722,2925.000 2556.448,2925.000 2564.783 M652.706 2585.667 C 647.945 2593.370,647.750 2619.625,652.259 2645.647 C 654.942 2661.128,658.014 2675.213,659.086 2676.948 C 665.301 2687.003,667.806 2645.040,663.149 2608.897 C 660.491 2588.269,656.535 2579.471,652.706 2585.667 M4814.596 2603.250 C 4794.722 2624.259,4780.670 2642.693,4738.558 2703.000 C 4632.767 2854.498,4582.232 2894.154,4330.830 3022.951 C 4218.054 3080.728,4209.557 3087.634,4287.000 3058.570 C 4411.721 3011.763,4516.588 2954.026,4603.500 2884.311 C 4650.131 2846.906,4686.701 2806.145,4738.624 2733.701 C 4828.311 2608.565,4842.800 2586.000,4833.457 2586.000 C 4832.058 2586.000,4823.570 2593.763,4814.596 2603.250 M1221.000 2598.735 C 1221.000 2603.662,1231.939 2616.000,1236.307 2616.000 C 1237.997 2616.000,1238.957 2611.613,1238.440 2606.250 C 1237.657 2598.126,1236.124 2596.342,1229.250 2595.551 C 1223.782 2594.922,1221.000 2595.996,1221.000 2598.735 M2874.390 2654.696 C 2871.465 2656.549,2875.357 2659.222,2887.890 2663.968 C 2912.302 2673.212,2923.223 2673.447,2924.458 2664.755 C 2925.166 2659.770,2923.354 2657.226,2917.513 2655.005 C 2907.843 2651.328,2880.020 2651.129,2874.390 2654.696 M2820.345 2681.687 C 2809.427 2688.698,2850.084 2696.942,2895.750 2696.977 C 2911.838 2696.990,2925.000 2695.796,2925.000 2694.325 C 2925.000 2690.841,2917.035 2689.001,2886.000 2685.318 C 2839.715 2679.825,2824.550 2678.987,2820.345 2681.687 M3413.000 2699.000 C 3409.116 2702.884,3411.085 2709.358,3418.364 2716.636 C 3426.809 2725.082,3438.427 2726.215,3444.280 2719.162 C 3447.748 2714.984,3446.974 2713.144,3438.600 2705.662 C 3429.524 2697.553,3417.560 2694.440,3413.000 2699.000 M3372.000 2719.896 C 3372.000 2729.160,3390.243 2748.000,3399.214 2748.000 C 3406.776 2748.000,3406.602 2740.801,3398.732 2728.066 C 3388.126 2710.905,3372.000 2705.976,3372.000 2719.896 M4528.387 2736.282 C 4491.528 2774.120,4410.535 2837.684,4339.402 2884.599 C 4247.054 2945.506,4184.125 2977.662,4102.500 3005.652 C 4051.102 3023.277,4052.148 3021.229,4112.332 2986.404 C 4134.584 2973.528,4171.175 2950.937,4193.645 2936.201 C 4216.115 2921.465,4243.493 2904.859,4254.484 2899.300 C 4291.811 2880.420,4397.958 2814.852,4488.939 2754.473 C 4516.681 2736.063,4540.255 2721.000,4541.327 2721.000 C 4542.398 2721.000,4536.575 2727.877,4528.387 2736.282 M3325.640 2736.750 C 3331.413 2755.812,3352.053 2778.147,3358.209 2771.991 C 3362.297 2767.903,3349.988 2743.999,3339.578 2735.811 C 3329.303 2727.729,3323.036 2728.151,3325.640 2736.750 M864.000 2737.391 C 864.000 2745.895,919.956 2787.962,963.000 2811.819 C 984.803 2823.903,1025.962 2841.000,1033.250 2841.000 C 1035.862 2841.000,1038.000 2839.517,1038.000 2837.704 C 1038.000 2830.404,1016.812 2815.290,987.038 2801.353 C 969.734 2793.253,940.709 2776.781,922.538 2764.749 C 875.053 2733.306,864.000 2728.141,864.000 2737.391 M657.000 2738.489 C 657.000 2743.569,691.202 2778.538,713.948 2796.714 C 754.097 2828.797,769.766 2835.509,848.022 2854.148 C 886.258 2863.256,927.447 2874.553,939.552 2879.253 C 964.935 2889.109,991.142 2906.139,1017.800 2930.099 C 1042.389 2952.200,1077.868 2975.328,1090.944 2977.781 C 1096.691 2978.859,1104.173 2978.501,1107.571 2976.985 C 1113.075 2974.529,1111.633 2972.991,1094.334 2962.875 C 1083.656 2956.630,1060.207 2939.236,1042.225 2924.220 C 984.659 2876.151,968.566 2868.317,873.956 2842.306 C 813.916 2825.799,776.288 2812.404,736.201 2793.265 C 706.527 2779.098,681.000 2760.186,681.000 2752.369 C 681.000 2750.205,677.443 2745.637,673.095 2742.218 C 665.029 2735.872,657.000 2734.012,657.000 2738.489 M3265.869 2759.250 C 3270.605 2778.956,3298.779 2820.000,3307.570 2820.000 C 3314.349 2820.000,3312.913 2812.053,3302.655 2792.807 C 3285.397 2760.428,3260.747 2737.942,3265.869 2759.250 M3300.000 2763.116 C 3300.000 2772.099,3321.807 2794.484,3328.176 2792.039 C 3334.502 2789.612,3330.865 2781.344,3317.052 2766.750 C 3306.508 2755.610,3300.000 2754.223,3300.000 2763.116 M1194.208 2837.066 C 1190.705 2849.681,1190.511 2862.601,1193.654 2873.870 L 1195.709 2881.239 1203.062 2870.913 C 1208.709 2862.983,1210.425 2856.747,1210.458 2844.043 C 1210.495 2829.300,1209.787 2827.398,1203.942 2826.566 C 1198.602 2825.806,1196.793 2827.757,1194.208 2837.066 M1230.794 2915.250 C 1233.581 2944.783,1247.672 2977.528,1254.609 2970.591 C 1260.041 2965.159,1238.450 2898.000,1231.271 2898.000 C 1230.114 2898.000,1229.899 2905.763,1230.794 2915.250 M3760.757 2900.584 C 3757.808 2905.356,3770.138 2934.766,3783.754 2955.437 C 3794.690 2972.041,3796.453 2973.579,3797.414 2967.362 C 3800.162 2949.607,3767.374 2889.877,3760.757 2900.584 M724.946 2914.428 C 721.848 2922.491,725.942 2959.915,729.337 2954.558 C 732.342 2949.816,732.327 2926.823,729.313 2916.000 C 727.369 2909.023,727.065 2908.913,724.946 2914.428 M4862.909 2919.000 C 4861.912 2945.565,4863.785 2986.942,4866.089 2989.266 C 4870.069 2993.280,4880.855 2967.769,4880.934 2954.154 C 4881.004 2942.178,4875.791 2927.500,4867.916 2917.500 C 4863.272 2911.603,4863.186 2911.629,4862.909 2919.000 M4431.000 2930.646 C 4368.736 2959.030,4306.246 2992.736,4298.537 3002.095 C 4294.913 3006.494,4295.420 3006.776,4303.500 3004.849 C 4323.991 2999.963,4470.000 2923.289,4470.000 2917.415 C 4470.000 2913.983,4460.435 2917.228,4431.000 2930.646 M745.368 2928.213 C 744.276 2929.980,744.306 2937.581,745.434 2945.104 C 749.316 2970.992,757.862 2980.337,765.169 2966.684 C 769.529 2958.537,766.513 2942.733,758.703 2932.804 C 752.083 2924.387,748.496 2923.152,745.368 2928.213 M4897.749 2940.750 C 4896.998 2944.463,4895.649 2959.650,4894.751 2974.500 C 4893.853 2989.350,4892.350 3010.275,4891.412 3021.000 L 4889.705 3040.500 4895.857 3029.382 C 4907.521 3008.300,4915.372 2954.885,4909.179 2938.745 C 4906.487 2931.730,4899.319 2932.987,4897.749 2940.750 M3744.000 2945.578 C 3744.000 2964.488,3738.844 2968.047,3726.000 2958.000 C 3716.981 2950.945,3708.000 2950.254,3708.000 2956.616 C 3708.000 2959.155,3713.333 2966.918,3719.851 2973.866 C 3732.820 2987.692,3738.630 2987.436,3746.206 2972.706 C 3750.666 2964.033,3751.199 2941.095,3747.000 2938.500 C 3745.257 2937.423,3744.000 2940.387,3744.000 2945.578 M4758.046 2952.750 C 4758.100 2967.657,4762.031 2976.459,4765.083 2968.506 C 4769.072 2958.111,4766.274 2940.000,4760.679 2940.000 C 4759.206 2940.000,4758.021 2945.738,4758.046 2952.750 M4228.140 3019.525 C 4199.682 3027.943,4168.292 3041.292,4170.876 3043.876 C 4175.375 3048.375,4253.205 3025.993,4267.418 3016.114 C 4272.920 3012.288,4272.605 3012.011,4262.918 3012.160 C 4257.188 3012.247,4241.538 3015.562,4228.140 3019.525 M849.000 3049.050 C 849.000 3060.863,915.962 3131.382,955.717 3161.435 C 982.532 3181.707,1041.873 3211.092,1072.514 3219.273 C 1106.234 3228.276,1174.129 3230.714,1197.986 3223.779 C 1207.344 3221.058,1215.000 3217.520,1215.000 3215.916 C 1215.000 3212.170,1221.773 3212.835,1155.000 3210.019 C 1089.252 3207.245,1064.251 3201.779,1017.834 3180.027 C 979.340 3161.988,953.299 3142.026,902.516 3091.628 C 876.674 3065.983,854.062 3045.000,852.266 3045.000 C 850.470 3045.000,849.000 3046.822,849.000 3049.050 M4092.000 3051.503 C 4085.186 3054.344,4085.015 3054.823,4090.134 3056.739 C 4097.164 3059.370,4113.000 3057.238,4113.000 3053.660 C 4113.000 3052.197,4111.760 3051.000,4110.245 3051.000 C 4108.730 3051.000,4105.693 3050.409,4103.495 3049.688 C 4101.298 3048.966,4096.125 3049.783,4092.000 3051.503 M3999.000 3066.833 C 3991.851 3070.123,3992.111 3070.334,4004.562 3071.330 C 4018.817 3072.471,4023.833 3070.259,4016.913 3065.883 C 4011.354 3062.367,4008.356 3062.526,3999.000 3066.833 M1032.000 3113.782 C 1032.000 3119.177,1054.795 3135.454,1079.788 3147.903 C 1110.453 3163.179,1127.427 3164.364,1150.660 3152.853 C 1175.160 3140.714,1170.896 3136.512,1134.000 3136.432 C 1100.601 3136.360,1089.901 3133.880,1061.336 3119.588 C 1044.128 3110.978,1032.000 3108.578,1032.000 3113.782 M3837.000 3315.355 C 3837.000 3352.707,3859.581 3405.521,3889.226 3437.506 C 3897.385 3446.309,3911.599 3456.000,3916.351 3456.000 C 3921.520 3456.000,3916.046 3445.116,3901.576 3426.622 C 3881.940 3401.527,3868.558 3375.457,3853.520 3333.000 C 3847.383 3315.675,3841.156 3300.218,3839.681 3298.650 C 3838.089 3296.958,3837.000 3303.743,3837.000 3315.355 M4520.394 3345.827 C 4518.346 3356.540,4521.351 3390.000,4524.361 3390.000 C 4525.812 3390.000,4527.021 3387.638,4527.046 3384.750 C 4527.071 3381.863,4528.357 3377.499,4529.904 3375.053 C 4532.252 3371.339,4534.224 3372.050,4541.858 3379.364 L 4551.000 3388.123 4551.000 3371.429 C 4551.000 3353.263,4547.068 3347.236,4536.945 3349.884 C 4532.715 3350.990,4529.259 3349.456,4526.226 3345.126 L 4521.750 3338.736 4520.394 3345.827 M3964.548 3354.395 C 3978.662 3400.450,4021.227 3467.158,4032.180 3460.389 C 4037.221 3457.273,4035.194 3451.117,4024.528 3437.149 C 4018.769 3429.606,4004.128 3406.869,3991.993 3386.622 C 3970.948 3351.509,3959.568 3338.146,3964.548 3354.395 M3919.619 3353.807 C 3916.615 3358.668,3928.196 3381.539,3938.610 3391.311 C 3946.836 3399.031,3947.990 3399.402,3947.916 3394.311 C 3947.809 3386.954,3929.663 3353.234,3925.025 3351.776 C 3923.114 3351.175,3920.681 3352.089,3919.619 3353.807 M3910.576 3399.750 C 3917.121 3422.067,3932.283 3443.651,3938.650 3439.716 C 3942.786 3437.160,3934.963 3415.640,3925.288 3402.956 C 3916.353 3391.241,3907.515 3389.315,3910.576 3399.750 M4700.400 3429.600 C 4702.729 3431.929,4704.000 3443.993,4704.000 3463.769 C 4704.000 3560.599,4664.944 3641.938,4524.254 3838.108 C 4501.616 3869.674,4464.099 3923.850,4440.882 3958.500 C 4393.899 4028.621,4371.046 4058.375,4323.908 4110.796 C 4262.520 4179.065,4213.585 4222.617,4122.000 4290.493 C 4014.872 4369.888,3939.901 4416.920,3898.474 4430.719 C 3814.646 4458.641,3746.438 4446.436,3697.724 4394.796 C 3662.712 4357.681,3655.407 4331.692,3657.755 4252.596 C 3658.968 4211.709,3660.394 4200.453,3667.264 4177.500 C 3681.402 4130.271,3709.766 4078.015,3791.018 3949.500 C 3900.716 3775.995,3922.852 3722.423,3912.452 3655.623 C 3910.669 3644.165,3909.529 3634.471,3909.920 3634.080 C 3910.311 3633.689,3944.351 3629.887,3985.565 3625.631 C 4203.377 3603.136,4322.888 3573.621,4500.472 3498.470 C 4588.434 3461.245,4620.106 3448.549,4656.000 3436.123 C 4687.218 3425.316,4694.976 3424.176,4700.400 3429.600 M4510.371 3621.275 C 4434.924 3660.915,4412.777 3670.907,4369.492 3684.837 C 4325.184 3699.096,4279.737 3708.843,4206.000 3719.903 C 4113.055 3733.843,4110.030 3734.908,4167.000 3733.632 C 4282.953 3731.036,4445.829 3685.670,4525.500 3633.778 C 4545.673 3620.639,4577.373 3592.472,4574.871 3589.910 C 4573.975 3588.993,4544.950 3603.107,4510.371 3621.275 M4613.078 3626.940 C 4556.013 3678.947,4517.935 3701.128,4422.902 3737.718 C 4359.110 3762.279,4333.478 3773.478,4335.780 3775.780 C 4338.311 3778.311,4391.305 3763.312,4434.000 3747.979 C 4524.651 3715.423,4608.965 3664.087,4634.459 3625.925 C 4644.134 3611.444,4650.822 3596.915,4647.686 3597.196 C 4646.484 3597.303,4630.910 3610.688,4613.078 3626.940 M4032.030 3803.677 C 4021.983 3806.474,4026.116 3808.463,4054.726 3814.600 C 4078.738 3819.751,4079.155 3819.736,4102.089 3812.927 C 4114.816 3809.149,4125.931 3804.920,4126.791 3803.529 C 4128.645 3800.530,4042.857 3800.664,4032.030 3803.677 M3753.000 4240.158 C 3753.000 4253.338,3772.114 4282.233,3792.973 4300.588 C 3812.757 4317.996,3840.165 4331.592,3860.277 4333.974 C 3888.271 4337.289,3879.055 4327.450,3834.000 4305.918 C 3801.805 4290.532,3786.212 4276.955,3770.648 4250.758 C 3763.866 4239.341,3757.120 4230.000,3755.658 4230.000 C 3754.196 4230.000,3753.000 4234.571,3753.000 4240.158 M3744.000 4294.825 C 3744.000 4304.139,3748.842 4312.943,3761.710 4327.025 C 3774.083 4340.564,3789.509 4347.018,3809.130 4346.862 L 3826.500 4346.725 3807.508 4337.937 C 3794.878 4332.094,3781.058 4321.919,3766.258 4307.568 C 3744.500 4286.471,3744.000 4286.185,3744.000 4294.825 " stroke="none" fill="black" fill-rule="evenodd"/></svg>